<?xml version="1.0" encoding="UTF-8" standalone="no"?>
<svg
   xmlns:dc="http://purl.org/dc/elements/1.1/"
   xmlns:cc="http://creativecommons.org/ns#"
   xmlns:rdf="http://www.w3.org/1999/02/22-rdf-syntax-ns#"
   xmlns:svg="http://www.w3.org/2000/svg"
   xmlns="http://www.w3.org/2000/svg"
   xmlns:sodipodi="http://sodipodi.sourceforge.net/DTD/sodipodi-0.dtd"
   xmlns:inkscape="http://www.inkscape.org/namespaces/inkscape"
   width="23.667341mm"
   height="20.623863mm"
   viewBox="0 0 23.667341 20.623863"
   version="1.1"
   id="svg8"
   inkscape:version="1.0beta2 (unknown)"
   sodipodi:docname="logo1.svg">
  <defs
     id="defs2" />
  <sodipodi:namedview
     fit-margin-bottom="0"
     fit-margin-right="0"
     fit-margin-left="0"
     fit-margin-top="0"
     id="base"
     pagecolor="#ffffff"
     bordercolor="#666666"
     borderopacity="1.0"
     inkscape:pageopacity="0.0"
     inkscape:pageshadow="2"
     inkscape:zoom="0.35"
     inkscape:cx="22.570062"
     inkscape:cy="19.854584"
     inkscape:document-units="mm"
     inkscape:current-layer="layer1"
     inkscape:document-rotation="0"
     showgrid="false"
     inkscape:window-width="1366"
     inkscape:window-height="712"
     inkscape:window-x="0"
     inkscape:window-y="0"
     inkscape:window-maximized="1" />
  <metadata
     id="metadata5">
    <rdf:RDF>
      <cc:Work
         rdf:about="">
        <dc:format>image/svg+xml</dc:format>
        <dc:type
           rdf:resource="http://purl.org/dc/dcmitype/StillImage" />
        <dc:title></dc:title>
      </cc:Work>
    </rdf:RDF>
  </metadata>
  <g
     transform="translate(-80.037111,-131.71345)"
     inkscape:label="Capa 1"
     inkscape:groupmode="layer"
     id="layer1"
     style="display:inline">
    <path
       sodipodi:nodetypes="cssscccccscccccccccccsc"
       inkscape:export-ydpi="956.38"
       inkscape:export-xdpi="956.38"
       style="fill:#ff0000;fill-opacity:1;stroke-width:0.352778;image-rendering:auto"
       d="m 81.974779,152.11267 c -0.990332,-0.0786 -2.139714,-1.88235 -1.907381,-3.65828 0.217503,-1.66257 1.189846,-4.67536 2.724557,-6.86636 1.51482,-2.16258 2.21434,-2.7008 2.21434,-1.70372 0,0.49728 1.01726,0.79807 2.94195,0.8699 1.67302,0.0624 1.66635,0.33611 -0.0534,2.19329 -2.02749,2.18945 -3.29303,4.43341 -3.16274,5.60789 0.0795,0.7165 0.3175,0.90303 1.26884,0.99432 1.5206,0.14592 3.95029,-1.12671 7.22912,-3.78649 2.70702,-2.19592 8.006265,-7.74863 8.299985,-8.33816 0.0808,-0.16225 0.78346,-1.12719 0.78346,-1.12719 1.5142,-2.28409 1.18158,-4.63516 -0.89022,-4.23912 -0.48031,0.0918 -0.72706,0.20154 -0.62447,0.0356 0.2552,-0.41292 1.39481,-0.55002 2.22247,-0.10704 3.38923,1.81385 -6.516855,14.65433 -14.648105,18.98719 -2.21479,1.18019 -5.10823,1.69484 -6.398406,1.13817 z m 5.298897,-12.43061 c -0.62639,-0.32057 -1.138615,-0.56288 -1.142815,-0.82617 0.109119,0.17932 -0.430354,-0.13364 -0.474153,-0.75118 0.0767,-0.75315 0.699057,-0.94484 1.835737,-1.87063 0.86188,-0.87425 2.85477,-2.07019 3.23356,-2.07019 0.99416,0 1.487575,0.10879 1.258102,1.06777 -0.665131,2.77962 -2.175586,6.84624 -4.710431,4.4504 z"
       id="path986"
       inkscape:connector-curvature="0" />
    <g
       id="g996"
       style="stroke:#ba0000;stroke-opacity:1">
      <path
         sodipodi:nodetypes="ccc"
         inkscape:connector-curvature="0"
         id="path990"
         d="m 91.784898,134.41439 c 0.390332,-0.57186 0.487036,-1.13251 0.487036,-1.13251 0.04731,-0.41648 -0.06044,-0.73758 -0.306472,-0.97363"
         style="fill:none;stroke:#ba0000;stroke-width:0.264583px;stroke-linecap:butt;stroke-linejoin:miter;stroke-opacity:1" />
      <path
         sodipodi:nodetypes="ccc"
         inkscape:connector-curvature="0"
         id="path992"
         d="m 92.271934,133.28188 c 0.319899,-0.19182 0.669837,-0.27415 1.071816,-0.1668 v 0"
         style="fill:none;stroke:#ba0000;stroke-width:0.264583px;stroke-linecap:butt;stroke-linejoin:miter;stroke-opacity:1" />
    </g>
    <ellipse
       style="opacity:1;fill:#ba0000;stroke:#2b0000;stroke-width:0.264583;stroke-miterlimit:4;stroke-dasharray:0, 2.91041;stroke-dashoffset:0;stroke-opacity:1"
       id="path998"
       cx="150.13812"
       cy="67.669098"
       rx="0.56604153"
       ry="0.28717333"
       transform="rotate(33)" />
    <ellipse
       transform="rotate(33)"
       ry="0.28717333"
       rx="0.56604153"
       cy="67.611633"
       cx="148.51897"
       id="path998-3"
       style="display:inline;opacity:1;fill:#ba0000;stroke:#2b0000;stroke-width:0.264583;stroke-miterlimit:4;stroke-dasharray:0, 2.91042;stroke-dashoffset:0;stroke-opacity:1" />
  </g>
</svg>
